<svg width="400" height="431" viewBox="0 0 400 431" fill="none" xmlns="http://www.w3.org/2000/svg">
<g clip-path="url(#clip0_742_582)">
<mask id="mask0_742_582" style="mask-type:luminance" maskUnits="userSpaceOnUse" x="0" y="0" width="400" height="431">
<path d="M0 12C0 5.37258 5.37258 0 12 0H388C394.627 0 400 5.37258 400 12V419C400 425.627 394.627 431 388 431H12C5.37257 431 0 425.627 0 419V12Z" fill="white"/>
</mask>
<g mask="url(#mask0_742_582)">
<path d="M0 12C0 5.37258 5.37258 0 12 0H388C394.627 0 400 5.37258 400 12V419C400 425.627 394.627 431 388 431H12C5.37257 431 0 425.627 0 419V12Z" fill="#234E4A"/>
<path opacity="0.2" d="M330.008 124.664L358.592 5.21091C358.861 4.08382 359.373 3.02879 360.09 2.1188L393.666 -40.457C398.317 -46.3542 407.797 -43.1715 407.946 -35.6626L417.338 435.341C417.428 439.82 413.821 443.5 409.34 443.5H23.3244C16.8603 443.5 13.0652 436.231 16.7604 430.927L198.575 169.964C202.559 164.246 211.441 166.002 212.95 172.805L229.796 248.765C231.584 256.83 242.937 257.223 245.278 249.3L287.396 106.775C289.361 100.125 298.278 98.9541 301.894 104.871L315.402 126.974C319.122 133.062 328.348 131.603 330.008 124.664Z" fill="#2D766E"/>
</g>
</g>
<defs>
<clipPath id="clip0_742_582">
<rect width="400" height="431" fill="white"/>
</clipPath>
</defs>
</svg>
