<svg width="14" height="14" viewBox="0 0 14 14" fill="none" xmlns="http://www.w3.org/2000/svg">
<g clip-path="url(#clip0_712_26550)">
<mask id="mask0_712_26550" style="mask-type:luminance" maskUnits="userSpaceOnUse" x="0" y="0" width="14" height="14">
<path d="M1.22392e-06 14L14 14L14 0L0 1.22392e-06L1.22392e-06 14Z" fill="white"/>
</mask>
<g mask="url(#mask0_712_26550)">
<path d="M4.50305 1.10804L6.71972 1.10804C7.04639 1.10804 7.75805 1.20721 8.13722 1.58638L9.90471 2.95138L9.36805 3.64554L7.55972 2.24554C7.41389 2.10554 7.04639 1.98888 6.71972 1.98888L4.50305 1.98888C3.97805 1.98888 3.41222 2.40888 3.29555 2.88138L1.88389 7.16888C1.79055 7.42554 1.80805 7.65888 1.93055 7.82804C2.05889 8.00888 2.29222 8.11388 2.57805 8.11388L4.91139 8.11388C5.21472 8.11388 5.49472 8.24222 5.68722 8.46389C5.88555 8.69139 5.97305 8.99472 5.92639 9.30972L5.63472 11.1822C5.56472 11.5089 5.78639 11.8764 6.10139 11.9814C6.38722 12.0864 6.75472 11.9347 6.88305 11.7481L9.27471 8.18972L9.99805 8.67389L7.60639 12.2322C7.23889 12.7806 6.43389 13.0431 5.80389 12.8039C5.07472 12.5647 4.60805 11.7597 4.77139 11.0131L5.05722 9.17555C5.06305 9.13472 5.06305 9.07639 5.02222 9.02972C4.99305 9.00055 4.95222 8.98305 4.90555 8.98305L2.57222 8.98305C2.00055 8.98305 1.50472 8.74389 1.21305 8.32972C0.927221 7.92721 0.868887 7.39638 1.05555 6.88304L2.44972 2.63638C2.66555 1.79054 3.56389 1.10804 4.50305 1.10804Z" fill="#0C0C0C"/>
<path d="M10.8613 1.75026L11.4447 1.75026C12.5238 1.75025 13.0488 2.25775 13.0488 3.29609L13.0488 9.01276C13.0488 10.0511 12.5238 10.5586 11.4447 10.5586L10.8613 10.5586C9.78216 10.5586 9.25716 10.0511 9.25716 9.01276L9.25716 3.29609C9.25716 2.25776 9.78216 1.75026 10.8613 1.75026ZM11.4447 9.68359C12.0805 9.68359 12.1738 9.53193 12.1738 9.01276L12.1738 3.29609C12.1738 2.77692 12.0805 2.62525 11.4447 2.62526L10.8613 2.62526C10.2255 2.62526 10.1322 2.77692 10.1322 3.29609L10.1322 9.01276C10.1322 9.53193 10.2255 9.68359 10.8613 9.68359L11.4447 9.68359Z" fill="#0C0C0C"/>
</g>
</g>
<defs>
<clipPath id="clip0_712_26550">
<rect width="14" height="14" fill="white" transform="translate(14 14) rotate(180)"/>
</clipPath>
</defs>
</svg>
