<svg width="14" height="14" viewBox="0 0 14 14" fill="none" xmlns="http://www.w3.org/2000/svg">
<g clip-path="url(#clip0_712_26535)">
<mask id="mask0_712_26535" style="mask-type:luminance" maskUnits="userSpaceOnUse" x="0" y="0" width="14" height="14">
<path d="M14 0H0V14H14V0Z" fill="white"/>
</mask>
<g mask="url(#mask0_712_26535)">
<path d="M7.32116 12.0107C6.86033 12.0107 6.35283 11.8473 5.84533 11.5265L4.14199 10.459C4.02533 10.389 3.89116 10.3482 3.75699 10.3482H2.91699C1.50533 10.3482 0.729492 9.57235 0.729492 8.16068V5.82736C0.729492 4.41569 1.50533 3.63986 2.91699 3.63986H3.75116C3.88533 3.63986 4.01949 3.59902 4.13616 3.52902L5.83949 2.46152C6.69116 1.93069 7.51949 1.83152 8.17283 2.19319C8.82616 2.55486 9.18199 3.30736 9.18199 4.31652V9.66568C9.18199 10.669 8.82033 11.4273 8.17283 11.789C7.91616 11.9407 7.62449 12.0107 7.32116 12.0107ZM2.91699 4.52069C1.99533 4.52069 1.60449 4.91152 1.60449 5.83319V8.16651C1.60449 9.08818 1.99533 9.47901 2.91699 9.47901H3.75116C4.05449 9.47901 4.34616 9.56068 4.60283 9.72401L6.30616 10.7915C6.86616 11.1415 7.39699 11.2348 7.75283 11.0365C8.10866 10.8382 8.31283 10.3423 8.31283 9.68318V4.32236C8.31283 3.65736 8.10866 3.16152 7.75283 2.96902C7.39699 2.77069 6.86616 2.85819 6.30616 3.21402L4.59699 4.27569C4.34616 4.43902 4.04866 4.52069 3.75116 4.52069H2.91699Z" fill="#0C0C0C"/>
<path d="M10.5002 9.77134C10.4068 9.77134 10.3193 9.74217 10.2377 9.68384C10.0452 9.538 10.0043 9.26384 10.1502 9.07134C11.066 7.85217 11.066 6.14884 10.1502 4.92965C10.0043 4.73715 10.0452 4.46298 10.2377 4.31715C10.4302 4.17132 10.7043 4.21215 10.8502 4.40465C11.9935 5.933 11.9935 8.068 10.8502 9.59634C10.7627 9.713 10.6343 9.77134 10.5002 9.77134Z" fill="#0C0C0C"/>
<path d="M11.5675 11.229C11.4742 11.229 11.3867 11.1999 11.305 11.1415C11.1125 10.9957 11.0717 10.7215 11.2175 10.529C12.775 8.45235 12.775 5.54733 11.2175 3.47067C11.0717 3.27817 11.1125 3.004 11.305 2.85817C11.4975 2.71233 11.7717 2.75317 11.9175 2.94567C13.7084 5.3315 13.7084 8.66818 11.9175 11.054C11.8359 11.1707 11.7017 11.229 11.5675 11.229Z" fill="#0C0C0C"/>
</g>
</g>
<defs>
<clipPath id="clip0_712_26535">
<rect width="14" height="14" fill="white"/>
</clipPath>
</defs>
</svg>
