<svg width="14" height="14" viewBox="0 0 14 14" fill="none" xmlns="http://www.w3.org/2000/svg">
<g clip-path="url(#clip0_712_26543)">
<mask id="mask0_712_26543" style="mask-type:luminance" maskUnits="userSpaceOnUse" x="0" y="0" width="14" height="14">
<path d="M14 0H0V14H14V0Z" fill="white"/>
</mask>
<g mask="url(#mask0_712_26543)">
<path d="M9.49695 12.892H7.28028C6.95361 12.892 6.24195 12.7928 5.86278 12.4136L4.09529 11.0486L4.63195 10.3545L6.44028 11.7545C6.58611 11.8945 6.95361 12.0111 7.28028 12.0111H9.49695C10.0219 12.0111 10.5878 11.5911 10.7044 11.1186L12.1161 6.83112C12.2094 6.57446 12.1919 6.34112 12.0694 6.17196C11.9411 5.99112 11.7078 5.88612 11.4219 5.88612H9.08861C8.78528 5.88612 8.50528 5.75778 8.31278 5.53611C8.11445 5.30861 8.02695 5.00528 8.07361 4.69028L8.36528 2.81778C8.43528 2.49111 8.21361 2.12361 7.89861 2.01861C7.61278 1.91361 7.24528 2.06528 7.11695 2.25195L4.72529 5.81028L4.00195 5.32611L6.39361 1.76778C6.76111 1.21945 7.56611 0.956946 8.19611 1.19611C8.92528 1.43528 9.39195 2.24028 9.22861 2.98695L8.94278 4.82445C8.93695 4.86528 8.93695 4.92361 8.97778 4.97028C9.00695 4.99945 9.04778 5.01695 9.09445 5.01695H11.4278C11.9994 5.01695 12.4953 5.25611 12.7869 5.67028C13.0728 6.07279 13.1311 6.60362 12.9444 7.11696L11.5503 11.3636C11.3344 12.2095 10.4361 12.892 9.49695 12.892Z" fill="#0C0C0C"/>
<path d="M3.13867 12.2497H2.55534C1.47617 12.2497 0.951172 11.7422 0.951172 10.7039V4.98724C0.951172 3.94891 1.47617 3.44141 2.55534 3.44141H3.13867C4.21784 3.44141 4.74284 3.94891 4.74284 4.98724V10.7039C4.74284 11.7422 4.21784 12.2497 3.13867 12.2497ZM2.55534 4.31641C1.91951 4.31641 1.82617 4.46807 1.82617 4.98724V10.7039C1.82617 11.2231 1.91951 11.3747 2.55534 11.3747H3.13867C3.77451 11.3747 3.86784 11.2231 3.86784 10.7039V4.98724C3.86784 4.46807 3.77451 4.31641 3.13867 4.31641H2.55534Z" fill="#0C0C0C"/>
</g>
</g>
<defs>
<clipPath id="clip0_712_26543">
<rect width="14" height="14" fill="white"/>
</clipPath>
</defs>
</svg>
