<svg width="20" height="20" viewBox="0 0 20 20" fill="none" xmlns="http://www.w3.org/2000/svg">
<g clip-path="url(#clip0_738_200)">
<path d="M7.23946 3.33324L9.41165 1.16107C9.73707 0.835632 10.2647 0.835632 10.5902 1.16107L12.7623 3.33324H15.8342C16.2945 3.33324 16.6676 3.70634 16.6676 4.16657V7.23848L18.8397 9.41067C19.1652 9.73609 19.1652 10.2638 18.8397 10.5892L16.6676 12.7613V15.8333C16.6676 16.2935 16.2945 16.6666 15.8342 16.6666H12.7623L10.5902 18.8388C10.2647 19.1642 9.73707 19.1642 9.41165 18.8388L7.23946 16.6666H4.16755C3.70732 16.6666 3.33422 16.2935 3.33422 15.8333V12.7613L1.16205 10.5892C0.836608 10.2638 0.836608 9.73609 1.16205 9.41067L3.33422 7.23848V4.16657C3.33422 3.70634 3.70732 3.33324 4.16755 3.33324H7.23946ZM5.00088 4.99991V7.92884L2.92982 9.99992L5.00088 12.071V14.9999H7.92982L10.0009 17.071L12.072 14.9999H15.0009V12.071L17.072 9.99992L15.0009 7.92884V4.99991H12.072L10.0009 2.92884L7.92982 4.99991H5.00088ZM10.0009 13.3333C8.15993 13.3333 6.66755 11.8408 6.66755 9.99992C6.66755 8.15896 8.15993 6.66657 10.0009 6.66657C11.8418 6.66657 13.3342 8.15896 13.3342 9.99992C13.3342 11.8408 11.8418 13.3333 10.0009 13.3333ZM10.0009 11.6666C10.9214 11.6666 11.6676 10.9204 11.6676 9.99992C11.6676 9.07942 10.9214 8.33326 10.0009 8.33326C9.0804 8.33326 8.33423 9.07942 8.33423 9.99992C8.33423 10.9204 9.0804 11.6666 10.0009 11.6666Z" fill="#4E4E55"/>
</g>
<defs>
<clipPath id="clip0_738_200">
<rect width="20" height="20" fill="white"/>
</clipPath>
</defs>
</svg>
