<svg width="24" height="24" viewBox="0 0 24 24" fill="none" xmlns="http://www.w3.org/2000/svg">
<path d="M12 1C9.08328 1 6.28344 2.15964 4.22266 4.2218C2.15975 6.28477 1.00057 9.08256 1 12C1 14.9162 2.16016 17.716 4.22266 19.7782C6.28344 21.8404 9.08328 23 12 23C14.9167 23 17.7166 21.8404 19.7773 19.7782C21.8398 17.716 23 14.9162 23 12C23 9.0838 21.8398 6.28395 19.7773 4.2218C17.7166 2.15964 14.9167 1 12 1Z" fill="url(#paint0_linear_735_1460)"/>
<path d="M5.97927 11.8831C9.18646 10.4861 11.3246 9.56498 12.3936 9.11999C15.4496 7.84932 16.0838 7.62864 16.498 7.62116C16.5891 7.6197 16.7919 7.64221 16.9243 7.74921C17.0343 7.83944 17.0652 7.96147 17.0807 8.04715C17.0944 8.13274 17.1133 8.32782 17.0979 8.4801C16.9329 10.2195 16.2161 14.4404 15.8518 16.3886C15.6988 17.2129 15.3946 17.4893 15.1007 17.5163C14.4613 17.575 13.9766 17.0941 13.3579 16.6887C12.3902 16.0539 11.8436 15.659 10.9035 15.0397C9.81724 14.324 10.5219 13.9306 11.1407 13.2878C11.3022 13.1195 14.1176 10.5594 14.1708 10.3272C14.1777 10.2982 14.1846 10.1899 14.1193 10.1329C14.0557 10.0756 13.9611 10.0952 13.8924 10.1107C13.7944 10.1327 12.2493 11.155 9.25177 13.1774C8.81349 13.4789 8.41646 13.6259 8.05896 13.6181C7.66708 13.6097 6.91083 13.3961 6.3488 13.2135C5.6613 12.9896 5.11302 12.8712 5.16115 12.4908C5.18521 12.2928 5.45849 12.0902 5.97927 11.8831Z" fill="white"/>
<defs>
<linearGradient id="paint0_linear_735_1460" x1="1101" y1="1" x2="1101" y2="2201" gradientUnits="userSpaceOnUse">
<stop stop-color="#2AABEE"/>
<stop offset="1" stop-color="#229ED9"/>
</linearGradient>
</defs>
</svg>
